<?xml version="1.0" encoding="iso-8859-1"?>
<!-- Generator: Adobe Illustrator 19.0.0, SVG Export Plug-In . SVG Version: 6.00 Build 0)  -->
<svg version="1.1" id="Capa_1" xmlns="http://www.w3.org/2000/svg" xmlns:xlink="http://www.w3.org/1999/xlink" x="0px" y="0px"
	 viewBox="0 0 512 512" style="enable-background:new 0 0 512 512;" xml:space="preserve">
<path style="fill:#23A3E1;" d="M385.03,34.77C346.3,12.09,302.08,0,256,0C137.106,0,40.045,80.24,9.97,184.84
	C3.4,207.68,0,231.58,0,256c0,141.495,114.497,256,256,256c13.48,0,26.79-1.03,39.86-3.07
	c99.689-15.485,179.19-88.431,206.09-181.48C508.57,304.52,512,280.52,512,256C512,161.975,461.52,79.562,385.03,34.77z"/>
<path style="fill:#1F84BD;" d="M385.03,34.77C346.3,12.09,302.08,0,256,0l0,0v512l0,0c13.48,0,26.79-1.03,39.86-3.07
	c99.689-15.485,179.19-88.431,206.09-181.48C508.57,304.52,512,280.52,512,256C512,161.975,461.52,79.562,385.03,34.77z"/>
<g>
	<path style="fill:#A4FF89;" d="M350.2,119.53c-4.8-12.01-3.47-25.66,3.56-36.51l31.27-48.25C346.3,12.09,302.08,0,256,0
		C137.106,0,40.045,80.24,9.97,184.84l132.38,184.5c14.088,19.629,41.719,23.735,60.91,8.66c11.53-9.06,17.53-23.17,16.06-37.76
		l-8.69-86.19c-1.593-15.764,10.646-29.504,26.55-29.67l49.06-0.52c50.767-0.534,84.865-52.077,66.16-98.83L350.2,119.53z"/>
	<path style="fill:#A4FF89;" d="M482.44,321.34c-26.56-8.32-55.03-4.17-78.12,11.37l-22.23,14.96
		c-12.13,8.162-22.667,9.43-35.71,9.43c-49.317,0-84.466,48.312-69.05,95.31l18.53,56.52c99.689-15.485,179.19-88.431,206.09-181.48
		L482.44,321.34z"/>
	<path style="fill:#A4FF89;" d="M267.262,296.595c0-13.764,8.173-26.162,20.821-31.586l61.676-26.455
		c13.702-5.876,29.519-2.301,39.361,8.894l10.039,11.421c17.233,19.601,7.199,50.52-18.304,56.23l-71.716,16.056
		C288.668,335.738,267.262,321.061,267.262,296.595z"/>
</g>
<g>
	<path style="fill:#59F486;" d="M350.2,119.53c-4.8-12.01-3.47-25.66,3.56-36.51l31.27-48.25C346.3,12.09,302.08,0,256,0l0,0
		v224.181l30.24-0.321c50.767-0.534,84.865-52.077,66.16-98.83L350.2,119.53z"/>
	<path style="fill:#59F486;" d="M482.44,321.34c-26.56-8.32-55.03-4.17-78.12,11.37l-22.23,14.96
		c-12.13,8.162-22.667,9.43-35.71,9.43c-49.317,0-84.466,48.312-69.05,95.31l18.53,56.52c99.689-15.485,179.19-88.431,206.09-181.48
		L482.44,321.34z"/>
	<path style="fill:#59F486;" d="M267.262,296.595c0-13.764,8.173-26.162,20.821-31.586l61.676-26.455
		c13.702-5.876,29.519-2.301,39.361,8.894l10.039,11.421c17.233,19.601,7.199,50.52-18.304,56.23l-71.716,16.056
		C288.668,335.738,267.262,321.061,267.262,296.595z"/>
</g>
<g>
</g>
<g>
</g>
<g>
</g>
<g>
</g>
<g>
</g>
<g>
</g>
<g>
</g>
<g>
</g>
<g>
</g>
<g>
</g>
<g>
</g>
<g>
</g>
<g>
</g>
<g>
</g>
<g>
</g>
</svg>
