<?xml version="1.0" encoding="iso-8859-1"?>
<!-- Generator: Adobe Illustrator 19.0.0, SVG Export Plug-In . SVG Version: 6.00 Build 0)  -->
<svg version="1.1" id="Capa_1" xmlns="http://www.w3.org/2000/svg" xmlns:xlink="http://www.w3.org/1999/xlink" x="0px" y="0px"
	 viewBox="0 0 512 512" style="enable-background:new 0 0 512 512;" xml:space="preserve">
<g>
	<path style="fill:#FFAE42;" d="M163.216,204.802h185.568c8.284,0,15-6.716,15-15s-6.716-15-15-15H163.216c-8.284,0-15,6.716-15,15
		S154.932,204.802,163.216,204.802z"/>
	<path style="fill:#FFAE42;" d="M348.784,241H163.216c-8.284,0-15,6.716-15,15s6.716,15,15,15h185.568c8.284,0,15-6.716,15-15
		S357.068,241,348.784,241z"/>
	<path style="fill:#FFAE42;" d="M348.784,307.198H163.216c-8.284,0-15,6.716-15,15s6.716,15,15,15h185.568c8.284,0,15-6.716,15-15
		S357.068,307.198,348.784,307.198z"/>
</g>
<g>
	<path style="fill:#FFDF63;" d="M256,174.802h-92.784c-8.284,0-15,6.716-15,15s6.716,15,15,15H256V174.802z"/>
	<path style="fill:#FFDF63;" d="M256,241h-92.784c-8.284,0-15,6.716-15,15s6.716,15,15,15H256V241z"/>
	<path style="fill:#FFDF63;" d="M256,307.198h-92.784c-8.284,0-15,6.716-15,15s6.716,15,15,15H256V307.198z"/>
</g>
<path style="fill:#319CD6;" d="M256,512C114.841,512,0,397.159,0,256S114.841,0,256,0s256,114.841,256,256S397.159,512,256,512z
	 M256,48.12C141.375,48.12,48.12,141.375,48.12,256S141.375,463.88,256,463.88S463.88,370.625,463.88,256S370.625,48.12,256,48.12z"
	/>
<path style="fill:#55D8EF;" d="M256,463.88c-114.625,0-207.88-93.255-207.88-207.88S141.375,48.12,256,48.12V0
	C114.841,0,0,114.841,0,256s114.841,256,256,256V463.88z"/>
<g>
</g>
<g>
</g>
<g>
</g>
<g>
</g>
<g>
</g>
<g>
</g>
<g>
</g>
<g>
</g>
<g>
</g>
<g>
</g>
<g>
</g>
<g>
</g>
<g>
</g>
<g>
</g>
<g>
</g>
</svg>
