<?xml version="1.0" encoding="iso-8859-1"?>
<!-- Generator: Adobe Illustrator 19.0.0, SVG Export Plug-In . SVG Version: 6.00 Build 0)  -->
<svg version="1.1" id="Layer_1" xmlns="http://www.w3.org/2000/svg" xmlns:xlink="http://www.w3.org/1999/xlink" x="0px" y="0px"
	 viewBox="0 0 512 512" style="enable-background:new 0 0 512 512;" xml:space="preserve">
<circle style="fill:#88C5CC;" cx="256" cy="256" r="256"/>
<rect x="296" y="140" style="fill:#354D59;" width="72" height="240"/>
<rect x="308" y="104" style="fill:#E6E6E6;" width="48" height="36"/>
<rect x="344" y="104" style="fill:#CCCCCC;" width="12" height="36"/>
<rect x="352" y="140" style="fill:#263740;" width="16" height="240"/>
<path style="fill:#354D59;" d="M368,104V64c0-8.8-7.2-16-16-16h-40c-8.8,0-16,7.2-16,16v40H368z"/>
<g>
	<path style="fill:#263740;" d="M352,48h-16c8.8,0,16,7.2,16,16v40h16V64C368,55.2,360.8,48,352,48z"/>
	<path style="fill:#263740;" d="M388,160h-4h-16v20h8v72c0,4.4,3.6,8,8,8h4c4.4,0,8-3.6,8-8v-80v-4C396,163.6,392.4,160,388,160z"/>
</g>
<g>
	<rect x="296" y="376" style="fill:#C2E2F2;" width="72" height="4"/>
	<rect x="296" y="148" style="fill:#C2E2F2;" width="72" height="4"/>
</g>
<path style="fill:#263740;" d="M337.368,461.688L368,380h-72l30.632,81.688c1.476,3.932,3.42,6.312,5.368,6.312
	C333.944,468,335.892,465.624,337.368,461.688z"/>
<path style="fill:#FFE0B3;" d="M260,48h-96c-8.8,0-16,7.2-16,16v388c0,8.8,7.2,16,16,16h96c8.8,0,16-7.2,16-16V64
	C276,55.2,268.8,48,260,48z M212,116c-6.628,0-12-5.372-12-12s5.372-12,12-12s12,5.372,12,12S218.628,116,212,116z"/>
<path style="fill:#E6CAA1;" d="M260,48h-8c8.8,0,16,7.2,16,16v388c0,8.8-7.2,16-16,16h8c8.8,0,16-7.2,16-16V64
	C276,55.2,268.8,48,260,48z"/>
<g>
	<rect x="148" y="120" style="fill:#CCB38F;" width="56" height="4"/>
	<rect x="148" y="180" style="fill:#CCB38F;" width="56" height="4"/>
	<rect x="148" y="132" style="fill:#CCB38F;" width="24" height="4"/>
	<rect x="148" y="144" style="fill:#CCB38F;" width="24" height="4"/>
	<rect x="148" y="156" style="fill:#CCB38F;" width="24" height="4"/>
	<rect x="148" y="168" style="fill:#CCB38F;" width="24" height="4"/>
	<rect x="148" y="240" style="fill:#CCB38F;" width="56" height="4"/>
	<rect x="148" y="192" style="fill:#CCB38F;" width="24" height="4"/>
	<rect x="148" y="204" style="fill:#CCB38F;" width="24" height="4"/>
	<rect x="148" y="216" style="fill:#CCB38F;" width="24" height="4"/>
	<rect x="148" y="228" style="fill:#CCB38F;" width="24" height="4"/>
	<rect x="148" y="300" style="fill:#CCB38F;" width="56" height="4"/>
	<rect x="148" y="252" style="fill:#CCB38F;" width="24" height="4"/>
	<rect x="148" y="264" style="fill:#CCB38F;" width="24" height="4"/>
	<rect x="148" y="276" style="fill:#CCB38F;" width="24" height="4"/>
	<rect x="148" y="288" style="fill:#CCB38F;" width="24" height="4"/>
	<rect x="148" y="360" style="fill:#CCB38F;" width="56" height="4"/>
	<rect x="148" y="312" style="fill:#CCB38F;" width="24" height="4"/>
	<rect x="148" y="324" style="fill:#CCB38F;" width="24" height="4"/>
	<rect x="148" y="336" style="fill:#CCB38F;" width="24" height="4"/>
	<rect x="148" y="348" style="fill:#CCB38F;" width="24" height="4"/>
	<rect x="148" y="420" style="fill:#CCB38F;" width="56" height="4"/>
	<rect x="148" y="372" style="fill:#CCB38F;" width="24" height="4"/>
	<rect x="148" y="384" style="fill:#CCB38F;" width="24" height="4"/>
	<rect x="148" y="396" style="fill:#CCB38F;" width="24" height="4"/>
	<rect x="148" y="408" style="fill:#CCB38F;" width="24" height="4"/>
</g>
<g>
</g>
<g>
</g>
<g>
</g>
<g>
</g>
<g>
</g>
<g>
</g>
<g>
</g>
<g>
</g>
<g>
</g>
<g>
</g>
<g>
</g>
<g>
</g>
<g>
</g>
<g>
</g>
<g>
</g>
</svg>
